<svg xmlns="http://www.w3.org/2000/svg" viewBox="0 0 32 32" fill="none">
  <circle cx="16" cy="16" r="16" fill="#2775CA"/>
  <path d="M17.32 19.27c0-1.69-1.03-2.28-3.09-2.52-1.48-.19-1.77-.57-1.77-1.24s.43-1.05 1.29-1.05c.77 0 1.19.29 1.39.96a.29.29 0 00.29.19h.67a.26.26 0 00.24-.29c-.19-1.05-.87-1.82-1.92-2.01v-1.15a.26.26 0 00-.29-.24h-.62a.26.26 0 00-.24.24v1.1c-1.29.24-2.11 1.15-2.11 2.25 0 1.58.96 2.21 3.04 2.44 1.39.24 1.82.53 1.82 1.29 0 .77-.67 1.29-1.58 1.29-.96 0-1.48-.43-1.63-1.15a.28.28 0 00-.24-.19h-.72a.26.26 0 00-.24.29c.19 1.19.91 1.91 2.35 2.16v1.15a.26.26 0 00.24.24h.62a.26.26 0 00.29-.24v-1.15c1.34-.24 2.2-1.19 2.2-2.37z" fill="white"/>
  <path d="M13.48 24.35c-3.42-1.19-5.24-4.94-4-8.37 .62-1.77 1.96-3.09 3.71-3.71a.2.2 0 00.14-.24v-.62a.24.24 0 00-.14-.24.29.29 0 00-.14 0c-4.08 1.34-6.28 5.72-4.94 9.8 .77 2.35 2.59 4.17 4.94 4.94a.29.29 0 00.14 0 .24.24 0 00.14-.24v-.62c.05-.1 0-.19-.14-.24l.29-.46z" fill="white" opacity=".5"/>
  <path d="M18.52 11.45a.29.29 0 00-.14 0 .24.24 0 00-.14.24v.62c0 .1.05.19.14.24 3.42 1.19 5.24 4.94 4 8.37-.62 1.77-1.96 3.09-3.71 3.71a.2.2 0 00-.14.24v.62a.24.24 0 00.14.24.29.29 0 00.14 0c4.08-1.34 6.28-5.72 4.94-9.8-.82-2.4-2.64-4.22-4.94-4.94l-.29-.34z" fill="white" opacity=".5"/>
</svg>
