<svg width="376" height="76" viewBox="0 0 376 76" fill="none" xmlns="http://www.w3.org/2000/svg">
<path d="M38 0C58.9868 0 76 17.0132 76 38C76 58.9868 58.9868 76 38 76C17.0132 76 0 58.9868 0 38C0 17.0132 17.0132 0 38 0ZM129.846 70.5H113.295L98.0039 37.707V70.5H83.0049V5.54102L82.9854 5.5H99.5361L129.846 70.5ZM160.501 70.5H145.501V37.334L132.043 66.1953L123.754 48.4766L143.795 5.5H160.501V70.5ZM182.509 20.6523V30.5H223.008L223.009 45.5H182.508V55.5H223.008L223.009 70.5H167.508V6.09082L182.509 20.6523ZM245.048 33.3154V70.5H230.048V11.8418L245.048 33.3154ZM279.048 49.3936V5.5H294.048V70.5H275.715L230.312 5.5H248.312L279.048 49.3936ZM335.558 52.6934L320.617 70.5H301.036L325.778 41.0117L335.558 52.6934ZM338.095 26.333L355.577 5.5H375.158L347.885 38.001L375.155 70.5H355.574L338.095 49.6689L338.069 49.7002L328.29 38.0186L328.304 38.001L301.032 5.5H320.613L338.095 26.333ZM38 15C25.2975 15 15 25.2975 15 38C15 50.7025 25.2975 61 38 61C50.7025 61 61 50.7025 61 38C61 25.2975 50.7025 15 38 15ZM223.009 20.5H187.834L172.382 5.5H223.009V20.5Z" fill="white"/>
</svg>
